<svg width="20" height="14" viewBox="0 0 20 14" fill="none" xmlns="http://www.w3.org/2000/svg">
<path d="M6.7505 9.26739V18.7504C6.7505 18.8783 6.78322 19.0041 6.84552 19.1157C6.90783 19.2274 6.99767 19.3213 7.10649 19.3885C7.21532 19.4557 7.33952 19.494 7.46729 19.4996C7.59506 19.5053 7.72216 19.4782 7.8365 19.4209L12.3365 17.1709C12.4609 17.1085 12.5655 17.0128 12.6387 16.8944C12.7118 16.776 12.7505 16.6396 12.7505 16.5004V9.26739L19.331 1.22589C19.3934 1.14965 19.4403 1.06187 19.4688 0.967544C19.4973 0.873218 19.507 0.7742 19.4972 0.676141C19.4875 0.578082 19.4585 0.482904 19.412 0.396041C19.3654 0.309178 19.3022 0.23233 19.226 0.169887C19.1498 0.107443 19.062 0.0606264 18.9677 0.0321089C18.8733 0.00359149 18.7743 -0.00606797 18.6763 0.00368218C18.5782 0.0134323 18.483 0.0424012 18.3962 0.0889346C18.3093 0.135468 18.2324 0.198655 18.17 0.274887L11.42 8.52489C11.3103 8.65904 11.2504 8.82706 11.2505 9.00039V16.0369L8.2505 17.5369V9.00039C8.25064 8.82706 8.19075 8.65904 8.081 8.52489L2.333 1.50039H14.2505C14.4494 1.50039 14.6402 1.42137 14.7808 1.28072C14.9215 1.14006 15.0005 0.949299 15.0005 0.750387C15.0005 0.551475 14.9215 0.360709 14.7808 0.220057C14.6402 0.0794048 14.4494 0.000386997 14.2505 0.000386997H0.750501C0.60842 0.000292209 0.469235 0.0405576 0.34915 0.116495C0.229065 0.192433 0.13302 0.300918 0.0721971 0.429322C0.0113743 0.557726 -0.0117243 0.700765 0.00559057 0.841787C0.0229055 0.982809 0.0799216 1.11601 0.170001 1.22589L6.7505 9.26739Z" fill="#3D3D3D"/>
</svg>
