<svg width="21" height="20" viewBox="0 0 21 20" fill="none" xmlns="http://www.w3.org/2000/svg">
<path d="M19.9049 19L13.9049 13M1.90491 8C1.90491 8.91925 2.08597 9.82951 2.43775 10.6788C2.78953 11.5281 3.30515 12.2997 3.95516 12.9497C4.60517 13.5998 5.37684 14.1154 6.22612 14.4672C7.0754 14.8189 7.98565 15 8.90491 15C9.82416 15 10.7344 14.8189 11.5837 14.4672C12.433 14.1154 13.2046 13.5998 13.8547 12.9497C14.5047 12.2997 15.0203 11.5281 15.3721 10.6788C15.7238 9.82951 15.9049 8.91925 15.9049 8C15.9049 7.08075 15.7238 6.1705 15.3721 5.32122C15.0203 4.47194 14.5047 3.70026 13.8547 3.05025C13.2046 2.40024 12.433 1.88463 11.5837 1.53284C10.7344 1.18106 9.82416 1 8.90491 1C7.98565 1 7.0754 1.18106 6.22612 1.53284C5.37684 1.88463 4.60517 2.40024 3.95516 3.05025C3.30515 3.70026 2.78953 4.47194 2.43775 5.32122C2.08597 6.1705 1.90491 7.08075 1.90491 8Z" stroke="#3D3D3D" stroke-width="2" stroke-linecap="round" stroke-linejoin="round"/>
</svg>
